<mxfile host="Electron" modified="2023-11-26T06:21:58.849Z" agent="Mozilla/5.0 (Windows NT 10.0; Win64; x64) AppleWebKit/537.36 (KHTML, like Gecko) draw.io/22.1.2 Chrome/114.0.5735.289 Electron/25.9.4 Safari/537.36" etag="2ph0kxXf7cOoSsCGzSbl" version="22.1.2" type="device">
  <diagram name="ページ1" id="O3tElxud9iMP7DyUNOIb">
    <mxGraphModel dx="574" dy="334" grid="1" gridSize="10" guides="1" tooltips="1" connect="1" arrows="1" fold="1" page="1" pageScale="1" pageWidth="827" pageHeight="1169" math="1" shadow="0">
      <root>
        <mxCell id="0" />
        <mxCell id="1" parent="0" />
        <mxCell id="50dE9C6nKHuc_68Oudyv-21" style="edgeStyle=orthogonalEdgeStyle;shape=connector;rounded=0;orthogonalLoop=1;jettySize=auto;html=1;exitX=1;exitY=0;exitDx=0;exitDy=0;exitPerimeter=0;entryX=0.5;entryY=1;entryDx=0;entryDy=0;labelBackgroundColor=default;strokeColor=default;align=center;verticalAlign=middle;fontFamily=Helvetica;fontSize=11;fontColor=default;endArrow=none;endFill=0;" edge="1" parent="1" target="50dE9C6nKHuc_68Oudyv-3">
          <mxGeometry relative="1" as="geometry">
            <mxPoint x="200.00000000000006" y="212.85714285714283" as="sourcePoint" />
          </mxGeometry>
        </mxCell>
        <mxCell id="50dE9C6nKHuc_68Oudyv-1" value="" style="verticalLabelPosition=bottom;shadow=0;dashed=0;align=center;html=1;verticalAlign=top;shape=mxgraph.electrical.transistors.nmos_bulk;pointerEvents=1;flipH=1;" vertex="1" parent="1">
          <mxGeometry x="200" y="190" width="60" height="100" as="geometry" />
        </mxCell>
        <mxCell id="50dE9C6nKHuc_68Oudyv-10" style="edgeStyle=orthogonalEdgeStyle;shape=connector;rounded=0;orthogonalLoop=1;jettySize=auto;html=1;exitX=1;exitY=0;exitDx=0;exitDy=0;exitPerimeter=0;entryX=0.5;entryY=1;entryDx=0;entryDy=0;labelBackgroundColor=default;strokeColor=default;align=center;verticalAlign=middle;fontFamily=Helvetica;fontSize=11;fontColor=default;endArrow=none;endFill=0;" edge="1" parent="1" target="50dE9C6nKHuc_68Oudyv-4">
          <mxGeometry relative="1" as="geometry">
            <mxPoint x="320" y="212.85714285714283" as="sourcePoint" />
          </mxGeometry>
        </mxCell>
        <mxCell id="50dE9C6nKHuc_68Oudyv-25" style="edgeStyle=orthogonalEdgeStyle;shape=connector;rounded=0;orthogonalLoop=1;jettySize=auto;html=1;exitX=1;exitY=0.5;exitDx=0;exitDy=0;exitPerimeter=0;entryX=0;entryY=0.5;entryDx=0;entryDy=0;labelBackgroundColor=default;strokeColor=default;align=center;verticalAlign=middle;fontFamily=Helvetica;fontSize=11;fontColor=default;endArrow=none;endFill=0;" edge="1" parent="1" source="50dE9C6nKHuc_68Oudyv-2" target="50dE9C6nKHuc_68Oudyv-24">
          <mxGeometry relative="1" as="geometry" />
        </mxCell>
        <mxCell id="50dE9C6nKHuc_68Oudyv-2" value="" style="verticalLabelPosition=bottom;shadow=0;dashed=0;align=center;html=1;verticalAlign=top;shape=mxgraph.electrical.transistors.nmos_bulk;pointerEvents=1;" vertex="1" parent="1">
          <mxGeometry x="260" y="190" width="60" height="100" as="geometry" />
        </mxCell>
        <mxCell id="50dE9C6nKHuc_68Oudyv-3" value="" style="verticalLabelPosition=bottom;shadow=0;dashed=0;align=center;html=1;verticalAlign=top;strokeWidth=1;shape=ellipse;perimeter=ellipsePerimeter;fontFamily=Helvetica;fontSize=11;fontColor=default;aspect=fixed;" vertex="1" parent="1">
          <mxGeometry x="197" y="177.00000000000006" width="6" height="6" as="geometry" />
        </mxCell>
        <mxCell id="50dE9C6nKHuc_68Oudyv-4" value="" style="verticalLabelPosition=bottom;shadow=0;dashed=0;align=center;html=1;verticalAlign=top;strokeWidth=1;shape=ellipse;perimeter=ellipsePerimeter;fontFamily=Helvetica;fontSize=11;fontColor=default;aspect=fixed;" vertex="1" parent="1">
          <mxGeometry x="317" y="177.00000000000006" width="6" height="6" as="geometry" />
        </mxCell>
        <mxCell id="50dE9C6nKHuc_68Oudyv-5" value="" style="verticalLabelPosition=bottom;shadow=0;dashed=0;align=center;html=1;verticalAlign=top;strokeWidth=1;shape=ellipse;perimeter=ellipsePerimeter;fontFamily=Helvetica;fontSize=11;fontColor=default;aspect=fixed;" vertex="1" parent="1">
          <mxGeometry x="257" y="317.00000000000006" width="6" height="6" as="geometry" />
        </mxCell>
        <mxCell id="50dE9C6nKHuc_68Oudyv-8" value="" style="verticalLabelPosition=bottom;shadow=0;dashed=0;align=center;html=1;verticalAlign=top;strokeWidth=1;shape=ellipse;perimeter=ellipsePerimeter;fontFamily=Helvetica;fontSize=11;fontColor=default;aspect=fixed;" vertex="1" parent="1">
          <mxGeometry x="257" y="177.00000000000006" width="6" height="6" as="geometry" />
        </mxCell>
        <mxCell id="50dE9C6nKHuc_68Oudyv-11" value="" style="shape=waypoint;sketch=0;fillStyle=solid;size=6;pointerEvents=1;points=[];fillColor=none;resizable=0;rotatable=0;perimeter=centerPerimeter;snapToPoint=1;fontFamily=Helvetica;fontSize=11;fontColor=default;" vertex="1" parent="1">
          <mxGeometry x="190" y="287.14" width="20" height="20" as="geometry" />
        </mxCell>
        <mxCell id="50dE9C6nKHuc_68Oudyv-17" value="" style="shape=waypoint;sketch=0;fillStyle=solid;size=6;pointerEvents=1;points=[];fillColor=none;resizable=0;rotatable=0;perimeter=centerPerimeter;snapToPoint=1;fontFamily=Helvetica;fontSize=11;fontColor=default;" vertex="1" parent="1">
          <mxGeometry x="250" y="230" width="20" height="20" as="geometry" />
        </mxCell>
        <mxCell id="50dE9C6nKHuc_68Oudyv-18" style="edgeStyle=orthogonalEdgeStyle;shape=connector;rounded=0;orthogonalLoop=1;jettySize=auto;html=1;exitX=0;exitY=0.5;exitDx=0;exitDy=0;exitPerimeter=0;entryX=0.047;entryY=0.556;entryDx=0;entryDy=0;entryPerimeter=0;labelBackgroundColor=default;strokeColor=default;align=center;verticalAlign=middle;fontFamily=Helvetica;fontSize=11;fontColor=default;endArrow=none;endFill=0;" edge="1" parent="1" source="50dE9C6nKHuc_68Oudyv-2" target="50dE9C6nKHuc_68Oudyv-17">
          <mxGeometry relative="1" as="geometry" />
        </mxCell>
        <mxCell id="50dE9C6nKHuc_68Oudyv-19" style="edgeStyle=orthogonalEdgeStyle;shape=connector;rounded=0;orthogonalLoop=1;jettySize=auto;html=1;exitX=0;exitY=0.5;exitDx=0;exitDy=0;exitPerimeter=0;entryX=1.015;entryY=0.766;entryDx=0;entryDy=0;entryPerimeter=0;labelBackgroundColor=default;strokeColor=default;align=center;verticalAlign=middle;fontFamily=Helvetica;fontSize=11;fontColor=default;endArrow=none;endFill=0;" edge="1" parent="1" source="50dE9C6nKHuc_68Oudyv-1" target="50dE9C6nKHuc_68Oudyv-17">
          <mxGeometry relative="1" as="geometry" />
        </mxCell>
        <mxCell id="50dE9C6nKHuc_68Oudyv-20" style="edgeStyle=orthogonalEdgeStyle;shape=connector;rounded=0;orthogonalLoop=1;jettySize=auto;html=1;exitX=1;exitY=1;exitDx=0;exitDy=0;exitPerimeter=0;entryX=0.603;entryY=0.966;entryDx=0;entryDy=0;entryPerimeter=0;labelBackgroundColor=default;strokeColor=default;align=center;verticalAlign=middle;fontFamily=Helvetica;fontSize=11;fontColor=default;endArrow=none;endFill=0;" edge="1" parent="1" source="50dE9C6nKHuc_68Oudyv-1" target="50dE9C6nKHuc_68Oudyv-11">
          <mxGeometry relative="1" as="geometry" />
        </mxCell>
        <mxCell id="50dE9C6nKHuc_68Oudyv-22" style="edgeStyle=orthogonalEdgeStyle;shape=connector;rounded=0;orthogonalLoop=1;jettySize=auto;html=1;exitX=0.5;exitY=1;exitDx=0;exitDy=0;entryX=0.313;entryY=0.944;entryDx=0;entryDy=0;entryPerimeter=0;labelBackgroundColor=default;strokeColor=default;align=center;verticalAlign=middle;fontFamily=Helvetica;fontSize=11;fontColor=default;endArrow=none;endFill=0;" edge="1" parent="1" source="50dE9C6nKHuc_68Oudyv-8" target="50dE9C6nKHuc_68Oudyv-17">
          <mxGeometry relative="1" as="geometry" />
        </mxCell>
        <mxCell id="50dE9C6nKHuc_68Oudyv-23" style="edgeStyle=orthogonalEdgeStyle;shape=connector;rounded=0;orthogonalLoop=1;jettySize=auto;html=1;exitX=1;exitY=0.5;exitDx=0;exitDy=0;exitPerimeter=0;entryX=1.044;entryY=0.196;entryDx=0;entryDy=0;entryPerimeter=0;labelBackgroundColor=default;strokeColor=default;align=center;verticalAlign=middle;fontFamily=Helvetica;fontSize=11;fontColor=default;endArrow=none;endFill=0;" edge="1" parent="1" source="50dE9C6nKHuc_68Oudyv-1" target="50dE9C6nKHuc_68Oudyv-11">
          <mxGeometry relative="1" as="geometry">
            <Array as="points">
              <mxPoint x="180" y="240" />
              <mxPoint x="180" y="297" />
              <mxPoint x="200" y="297" />
            </Array>
          </mxGeometry>
        </mxCell>
        <mxCell id="50dE9C6nKHuc_68Oudyv-24" value="" style="verticalLabelPosition=bottom;shadow=0;dashed=0;align=center;html=1;verticalAlign=top;strokeWidth=1;shape=ellipse;perimeter=ellipsePerimeter;fontFamily=Helvetica;fontSize=11;fontColor=default;aspect=fixed;" vertex="1" parent="1">
          <mxGeometry x="357" y="237.00000000000006" width="6" height="6" as="geometry" />
        </mxCell>
        <mxCell id="50dE9C6nKHuc_68Oudyv-26" value="" style="shape=waypoint;sketch=0;fillStyle=solid;size=6;pointerEvents=1;points=[];fillColor=none;resizable=0;rotatable=0;perimeter=centerPerimeter;snapToPoint=1;fontFamily=Helvetica;fontSize=11;fontColor=default;" vertex="1" parent="1">
          <mxGeometry x="250" y="287.14" width="20" height="20" as="geometry" />
        </mxCell>
        <mxCell id="50dE9C6nKHuc_68Oudyv-27" style="edgeStyle=orthogonalEdgeStyle;shape=connector;rounded=0;orthogonalLoop=1;jettySize=auto;html=1;entryX=0.002;entryY=0.535;entryDx=0;entryDy=0;entryPerimeter=0;labelBackgroundColor=default;strokeColor=default;align=center;verticalAlign=middle;fontFamily=Helvetica;fontSize=11;fontColor=default;endArrow=none;endFill=0;" edge="1" parent="1" source="50dE9C6nKHuc_68Oudyv-11" target="50dE9C6nKHuc_68Oudyv-26">
          <mxGeometry relative="1" as="geometry" />
        </mxCell>
        <mxCell id="50dE9C6nKHuc_68Oudyv-28" style="edgeStyle=orthogonalEdgeStyle;shape=connector;rounded=0;orthogonalLoop=1;jettySize=auto;html=1;exitX=1;exitY=1;exitDx=0;exitDy=0;exitPerimeter=0;entryX=0.914;entryY=0.639;entryDx=0;entryDy=0;entryPerimeter=0;labelBackgroundColor=default;strokeColor=default;align=center;verticalAlign=middle;fontFamily=Helvetica;fontSize=11;fontColor=default;endArrow=none;endFill=0;" edge="1" parent="1" source="50dE9C6nKHuc_68Oudyv-2" target="50dE9C6nKHuc_68Oudyv-26">
          <mxGeometry relative="1" as="geometry">
            <Array as="points">
              <mxPoint x="320" y="297" />
              <mxPoint x="260" y="297" />
            </Array>
          </mxGeometry>
        </mxCell>
        <mxCell id="50dE9C6nKHuc_68Oudyv-29" style="edgeStyle=orthogonalEdgeStyle;shape=connector;rounded=0;orthogonalLoop=1;jettySize=auto;html=1;exitX=0.5;exitY=0;exitDx=0;exitDy=0;entryX=0.618;entryY=0.007;entryDx=0;entryDy=0;entryPerimeter=0;labelBackgroundColor=default;strokeColor=default;align=center;verticalAlign=middle;fontFamily=Helvetica;fontSize=11;fontColor=default;endArrow=none;endFill=0;" edge="1" parent="1" source="50dE9C6nKHuc_68Oudyv-5" target="50dE9C6nKHuc_68Oudyv-26">
          <mxGeometry relative="1" as="geometry" />
        </mxCell>
      </root>
    </mxGraphModel>
  </diagram>
</mxfile>
